<svg width="157" height="49" viewBox="0 0 157 49" fill="none" xmlns="http://www.w3.org/2000/svg">
<path d="M76.1606 1.38929C97.6721 -0.396065 117.344 0.58784 131.754 3.61125C138.962 5.12367 144.824 7.14127 148.938 9.55696C153.066 11.981 155.329 14.7415 155.575 17.7088C155.822 20.676 154.045 23.7718 150.373 26.8432C146.714 29.904 141.264 32.8595 134.404 35.5396C120.689 40.8971 101.449 45.1115 79.9375 46.8969C58.4259 48.6822 38.754 47.6974 24.3444 44.674C17.1364 43.1615 11.2737 41.1449 7.16005 38.7292C3.03226 36.3052 0.768964 33.5446 0.522637 30.5774C0.27637 27.6102 2.0537 24.5143 5.72537 21.443C9.38453 18.3822 14.8344 15.4257 21.6945 12.7457C35.4086 7.38806 54.649 3.17467 76.1606 1.38929Z" stroke="black"/>
</svg>
